<svg width="20" height="20" viewBox="0 0 20 20" fill="none" xmlns="http://www.w3.org/2000/svg">
    <path fill-rule="evenodd" clip-rule="evenodd" d="M3.33333 2.22222C3.03865 2.22222 2.75603 2.33929 2.54766 2.54766C2.33929 2.75603 2.22222 3.03865 2.22222 3.33333V6.66667C2.22222 7.28032 1.72476 7.77778 1.11111 7.77778C0.497461 7.77778 0 7.28032 0 6.66667V3.33333C0 2.44928 0.351189 1.60143 0.976311 0.976311C1.60143 0.351189 2.44928 0 3.33333 0H6.66667C7.28032 0 7.77778 0.497461 7.77778 1.11111C7.77778 1.72476 7.28032 2.22222 6.66667 2.22222H3.33333ZM12.2222 1.11111C12.2222 0.497461 12.7197 0 13.3333 0H16.6667C17.5507 0 18.3986 0.351189 19.0237 0.976311C19.6488 1.60143 20 2.44928 20 3.33333V6.66667C20 7.28032 19.5025 7.77778 18.8889 7.77778C18.2752 7.77778 17.7778 7.28032 17.7778 6.66667V3.33333C17.7778 3.03865 17.6607 2.75603 17.4523 2.54766C17.244 2.33929 16.9614 2.22222 16.6667 2.22222H13.3333C12.7197 2.22222 12.2222 1.72476 12.2222 1.11111ZM1.11111 12.2222C1.72476 12.2222 2.22222 12.7197 2.22222 13.3333V16.6667C2.22222 16.9614 2.33929 17.244 2.54766 17.4523C2.75603 17.6607 3.03865 17.7778 3.33333 17.7778H6.66667C7.28032 17.7778 7.77778 18.2752 7.77778 18.8889C7.77778 19.5025 7.28032 20 6.66667 20H3.33333C2.44928 20 1.60143 19.6488 0.976311 19.0237C0.351189 18.3986 0 17.5507 0 16.6667V13.3333C0 12.7197 0.497461 12.2222 1.11111 12.2222ZM18.8889 12.2222C19.5025 12.2222 20 12.7197 20 13.3333V16.6667C20 17.5507 19.6488 18.3986 19.0237 19.0237C18.3986 19.6488 17.5507 20 16.6667 20H13.3333C12.7197 20 12.2222 19.5025 12.2222 18.8889C12.2222 18.2752 12.7197 17.7778 13.3333 17.7778H16.6667C16.9614 17.7778 17.244 17.6607 17.4523 17.4523C17.6607 17.244 17.7778 16.9614 17.7778 16.6667V13.3333C17.7778 12.7197 18.2752 12.2222 18.8889 12.2222Z" fill="white"/>
</svg>
