<svg width="20" height="20" viewBox="0 0 20 20" fill="none" xmlns="http://www.w3.org/2000/svg">
    <path fill-rule="evenodd" clip-rule="evenodd" d="M6.36364 0C6.60474 0 6.83597 0.0957791 7.00646 0.266267C7.17695 0.436754 7.27273 0.667985 7.27273 0.909091V6.36364C7.27273 6.60474 7.17695 6.83597 7.00646 7.00646C6.83597 7.17695 6.60474 7.27273 6.36364 7.27273H0.909091C0.667985 7.27273 0.436754 7.17695 0.266267 7.00646C0.0957791 6.83597 0 6.60474 0 6.36364C0 6.12253 0.0957791 5.8913 0.266267 5.72081C0.436754 5.55032 0.667985 5.45455 0.909091 5.45455H5.45455V0.909091C5.45455 0.667985 5.55032 0.436754 5.72081 0.266267C5.8913 0.0957791 6.12253 0 6.36364 0ZM13.6364 0C13.8775 0 14.1087 0.0957791 14.2792 0.266267C14.4497 0.436754 14.5455 0.667985 14.5455 0.909091V5.45455H19.0909C19.332 5.45455 19.5632 5.55032 19.7337 5.72081C19.9042 5.8913 20 6.12253 20 6.36364C20 6.60474 19.9042 6.83597 19.7337 7.00646C19.5632 7.17695 19.332 7.27273 19.0909 7.27273H13.6364C13.3953 7.27273 13.164 7.17695 12.9935 7.00646C12.8231 6.83597 12.7273 6.60474 12.7273 6.36364V0.909091C12.7273 0.667985 12.8231 0.436754 12.9935 0.266267C13.164 0.0957791 13.3953 0 13.6364 0ZM0 13.6364C0 13.3953 0.0957791 13.164 0.266267 12.9935C0.436754 12.8231 0.667985 12.7273 0.909091 12.7273H6.36364C6.60474 12.7273 6.83597 12.8231 7.00646 12.9935C7.17695 13.164 7.27273 13.3953 7.27273 13.6364V19.0909C7.27273 19.332 7.17695 19.5632 7.00646 19.7337C6.83597 19.9042 6.60474 20 6.36364 20C6.12253 20 5.8913 19.9042 5.72081 19.7337C5.55032 19.5632 5.45455 19.332 5.45455 19.0909V14.5455H0.909091C0.667985 14.5455 0.436754 14.4497 0.266267 14.2792C0.0957791 14.1087 0 13.8775 0 13.6364ZM12.7273 13.6364C12.7273 13.3953 12.8231 13.164 12.9935 12.9935C13.164 12.8231 13.3953 12.7273 13.6364 12.7273H19.0909C19.332 12.7273 19.5632 12.8231 19.7337 12.9935C19.9042 13.164 20 13.3953 20 13.6364C20 13.8775 19.9042 14.1087 19.7337 14.2792C19.5632 14.4497 19.332 14.5455 19.0909 14.5455H14.5455V19.0909C14.5455 19.332 14.4497 19.5632 14.2792 19.7337C14.1087 19.9042 13.8775 20 13.6364 20C13.3953 20 13.164 19.9042 12.9935 19.7337C12.8231 19.5632 12.7273 19.332 12.7273 19.0909V13.6364Z" fill="white"/>
</svg>
