<svg width="32" height="32" viewBox="0 0 32 32" fill="none" xmlns="http://www.w3.org/2000/svg">
    <g clip-path="url(#clip0_0_86)">
        <path fill-rule="evenodd" clip-rule="evenodd" d="M13.6896 2.91412C15.2166 2.64662 16.7785 2.64662 18.3056 2.91412C18.4784 2.94516 18.6556 2.94176 18.8271 2.90411C18.9986 2.86646 19.161 2.79532 19.3049 2.69475C19.4488 2.59419 19.5715 2.46618 19.6658 2.31809C19.7601 2.17 19.8243 2.00473 19.8546 1.83179C19.8849 1.65884 19.8807 1.48161 19.8423 1.31027C19.8039 1.13894 19.7321 0.976875 19.6309 0.833383C19.5297 0.689891 19.4012 0.567798 19.2527 0.474112C19.1042 0.380426 18.9386 0.316993 18.7656 0.287454C16.9342 -0.033318 15.0609 -0.033318 13.2296 0.287454C12.8825 0.349785 12.5742 0.547063 12.3723 0.836116C12.1703 1.12517 12.0911 1.48246 12.1519 1.82979C12.2127 2.17713 12.4087 2.48623 12.6968 2.68944C12.985 2.89266 13.342 2.97344 13.6896 2.91412ZM23.8282 2.09945C23.5212 1.93632 23.1625 1.89959 22.8288 1.99709C22.495 2.09459 22.2126 2.31861 22.0416 2.62138C21.8707 2.92415 21.8247 3.28173 21.9137 3.61787C22.0026 3.95401 22.2193 4.24213 22.5176 4.42079C24.5707 5.57694 26.2793 7.25857 27.468 9.2931C28.6567 11.3276 29.2826 13.6418 29.2816 15.9981C29.2816 23.3341 23.3349 29.2821 15.9976 29.2821C13.2591 29.2823 10.5875 28.4364 8.34807 26.8603C6.10868 25.2841 4.41087 23.0546 3.48688 20.4768C3.42779 20.3119 3.3368 20.1603 3.21912 20.0306C3.10144 19.901 2.95936 19.7957 2.80101 19.7209C2.64265 19.6462 2.47112 19.6033 2.2962 19.5948C2.12128 19.5863 1.9464 19.6124 1.78155 19.6715C1.6167 19.7305 1.4651 19.8215 1.33541 19.9392C1.20572 20.0569 1.10048 20.199 1.0257 20.3573C0.950916 20.5157 0.908056 20.6872 0.899566 20.8621C0.891076 21.0371 0.917122 21.2119 0.976217 21.3768C3.18422 27.5368 9.07355 31.9488 15.9976 31.9488C24.8069 31.9488 31.9482 24.8075 31.9482 15.9981C31.9491 13.1694 31.1975 10.3915 29.7706 7.94906C28.3437 5.50666 26.2928 3.48777 23.8282 2.09945ZM9.22555 4.56612C9.38244 4.48011 9.52041 4.36341 9.63126 4.22296C9.7421 4.08251 9.82354 3.92119 9.87072 3.74861C9.91791 3.57602 9.92988 3.39571 9.90592 3.2184C9.88197 3.0411 9.82257 2.87042 9.73127 2.71655C9.63996 2.56269 9.51863 2.42877 9.37449 2.32277C9.23034 2.21678 9.06634 2.14088 8.89225 2.0996C8.71816 2.05831 8.53755 2.05249 8.36116 2.08247C8.18477 2.11246 8.01622 2.17763 7.86555 2.27412C6.3048 3.20139 4.91298 4.38716 3.74955 5.78079C3.5332 6.05346 3.43205 6.39993 3.46772 6.74618C3.50339 7.09243 3.67305 7.411 3.94046 7.63383C4.20786 7.85667 4.5518 7.9661 4.89881 7.93875C5.24581 7.9114 5.56836 7.74943 5.79755 7.48745C6.767 6.32653 7.92527 5.3387 9.22555 4.56612ZM3.48688 11.5208C3.54598 11.3559 3.57202 11.1811 3.56353 11.0061C3.55504 10.8312 3.51219 10.6597 3.4374 10.5013C3.36262 10.343 3.25738 10.2009 3.12769 10.0832C2.998 9.96554 2.8464 9.87455 2.68155 9.81545C2.34862 9.69611 1.98191 9.7139 1.66209 9.86493C1.50374 9.93972 1.36166 10.045 1.24398 10.1746C1.1263 10.3043 1.03531 10.4559 0.976217 10.6208C0.359356 12.3464 0.0449631 14.1656 0.0468837 15.9981C0.0468837 16.3517 0.18736 16.6909 0.437408 16.9409C0.687457 17.191 1.0266 17.3315 1.38022 17.3315C1.73384 17.3315 2.07298 17.191 2.32303 16.9409C2.57307 16.6909 2.71355 16.3517 2.71355 15.9981C2.71355 14.4248 2.98688 12.9168 3.48688 11.5181V11.5208ZM15.9976 26.2648C17.3597 26.2867 18.7126 26.0374 19.9775 25.5313C21.2423 25.0252 22.3938 24.2725 23.3649 23.317C24.3359 22.3614 25.1071 21.2222 25.6335 19.9657C26.1599 18.7092 26.431 17.3605 26.431 15.9981C26.431 14.6358 26.1599 13.2871 25.6335 12.0305C25.1071 10.774 24.3359 9.6348 23.3649 8.67928C22.3938 7.72376 21.2423 6.97102 19.9775 6.46493C18.7126 5.95883 17.3597 5.7095 15.9976 5.73145C13.3033 5.77488 10.7341 6.87564 8.84418 8.79629C6.95423 10.7169 5.89502 13.3035 5.89502 15.9981C5.89502 18.6927 6.95423 21.2793 8.84418 23.2C10.7341 25.1206 13.3033 26.2214 15.9976 26.2648ZM12.7082 19.7355V12.2595C12.7082 12.0212 12.772 11.7872 12.893 11.5819C13.014 11.3766 13.1879 11.2075 13.3964 11.0922C13.605 10.9769 13.8406 10.9196 14.0788 10.9263C14.317 10.933 14.5491 11.0033 14.7509 11.1301L20.7029 14.8688C20.8941 14.9888 21.0517 15.1553 21.1609 15.3529C21.2701 15.5504 21.3274 15.7724 21.3274 15.9981C21.3274 16.2238 21.2701 16.4459 21.1609 16.6434C21.0517 16.8409 20.8941 17.0075 20.7029 17.1275L14.7509 20.8661C14.5491 20.9929 14.317 21.0633 14.0788 21.0699C13.8406 21.0766 13.605 21.0193 13.3964 20.904C13.1879 20.7887 13.014 20.6196 12.893 20.4143C12.772 20.2091 12.7082 19.9738 12.7082 19.7355Z" fill="#4951FF"/>
    </g>
    <defs>
        <clipPath id="clip0_0_86">
            <rect width="32" height="32" fill="white"/>
        </clipPath>
    </defs>
</svg>
