<svg width="32" height="32" viewBox="0 0 32 32" fill="none" xmlns="http://www.w3.org/2000/svg">
    <g clip-path="url(#clip0_0_88)">
        <path d="M24.5724 19.3334C24.6306 19.3324 24.6877 19.3173 24.7388 19.2894C24.7899 19.2616 24.8335 19.2217 24.8658 19.1734C25.8919 17.5007 26.5086 15.6094 26.6658 13.6534C26.6725 13.595 26.6638 13.5359 26.6403 13.4821C26.6169 13.4282 26.5797 13.3815 26.5324 13.3467C26.4843 13.3172 26.4289 13.3016 26.3724 13.3016C26.316 13.3016 26.2606 13.3172 26.2124 13.3467L25.0658 13.8134L24.9591 13.88C24.3414 14.4663 23.5642 14.857 22.7251 15.0029C21.8861 15.1488 21.0226 15.0435 20.2433 14.7001C19.4639 14.3567 18.8034 13.7906 18.3448 13.073C17.8862 12.3554 17.65 11.5182 17.6658 10.6667C17.6684 9.84613 17.9025 9.04296 18.3412 8.34951C18.7799 7.65607 19.4054 7.10051 20.1458 6.74669C20.2 6.71856 20.2458 6.67662 20.2785 6.62512C20.3113 6.57361 20.3299 6.51436 20.3324 6.45335V4.10669C20.3336 3.48049 20.4701 2.86193 20.7324 2.29335C20.767 2.21835 20.7725 2.13319 20.7479 2.05436C20.7233 1.97553 20.6702 1.90865 20.5991 1.86669C18.6158 0.642229 16.33 -0.00425509 13.9991 2.10767e-05C11.7495 -0.00311764 9.53978 0.593533 7.5975 1.72851C5.65522 2.86349 4.05064 4.49575 2.94904 6.45716C1.84745 8.41857 1.28868 10.6382 1.33029 12.8874C1.3719 15.1366 2.01239 17.334 3.18578 19.2534C3.19918 19.28 3.2204 19.302 3.24661 19.3163C3.27282 19.3306 3.30276 19.3365 3.33245 19.3334H24.5724ZM13.9991 15.3334C13.4717 15.3334 12.9561 15.177 12.5176 14.8839C12.0791 14.5909 11.7373 14.1744 11.5354 13.6872C11.3336 13.1999 11.2808 12.6637 11.3837 12.1464C11.4866 11.6292 11.7406 11.154 12.1135 10.7811C12.4864 10.4081 12.9616 10.1542 13.4789 10.0513C13.9962 9.94837 14.5323 10.0012 15.0196 10.203C15.5069 10.4048 15.9233 10.7466 16.2164 11.1852C16.5094 11.6237 16.6658 12.1393 16.6658 12.6667C16.6658 13.3739 16.3848 14.0522 15.8847 14.5523C15.3846 15.0524 14.7064 15.3334 13.9991 15.3334Z" fill="#4951FF"/>
        <path d="M28.6667 21.332H3.33335C2.4493 21.332 1.60145 21.6832 0.976332 22.3083C0.35121 22.9335 2.08359e-05 23.7813 2.08359e-05 24.6654V27.332C-0.00293908 28.1696 0.30956 28.9777 0.875337 29.5953C1.44111 30.213 2.21869 30.595 3.05335 30.6654C3.12672 30.6698 3.19656 30.6983 3.25203 30.7466C3.30749 30.7948 3.34545 30.86 3.36002 30.932C3.36002 31.2857 3.5005 31.6248 3.75055 31.8748C4.00059 32.1249 4.33973 32.2654 4.69335 32.2654C5.04698 32.2654 5.38611 32.1249 5.63616 31.8748C5.88621 31.6248 6.02669 31.2857 6.02669 30.932C6.04227 30.8556 6.08416 30.7871 6.14507 30.7383C6.20598 30.6896 6.28204 30.6638 6.36002 30.6654H25.6934C25.7713 30.6638 25.8474 30.6896 25.9083 30.7383C25.9692 30.7871 26.0111 30.8556 26.0267 30.932C26.0267 31.2857 26.1672 31.6248 26.4172 31.8748C26.6673 32.1249 27.0064 32.2654 27.36 32.2654C27.7136 32.2654 28.0528 32.1249 28.3028 31.8748C28.5529 31.6248 28.6934 31.2857 28.6934 30.932C28.7079 30.86 28.7459 30.7948 28.8013 30.7466C28.8568 30.6983 28.9267 30.6698 29 30.6654C29.8251 30.5825 30.5896 30.195 31.1444 29.5786C31.6991 28.9623 32.0042 28.1613 32 27.332V24.6654C32 24.2276 31.9138 23.7942 31.7463 23.3898C31.5788 22.9853 31.3332 22.6179 31.0237 22.3083C30.7142 21.9988 30.3467 21.7533 29.9423 21.5858C29.5379 21.4183 29.1044 21.332 28.6667 21.332ZM5.33335 27.9987C5.15654 27.9987 4.98697 27.9285 4.86195 27.8034C4.73693 27.6784 4.66669 27.5088 4.66669 27.332V24.6654C4.6701 24.4896 4.74144 24.322 4.86573 24.1977C4.99002 24.0734 5.15761 24.0021 5.33335 23.9987H18.6667C18.8424 24.0021 19.01 24.0734 19.1343 24.1977C19.2586 24.322 19.3299 24.4896 19.3334 24.6654V27.332C19.3334 27.5088 19.2631 27.6784 19.1381 27.8034C19.0131 27.9285 18.8435 27.9987 18.6667 27.9987H5.33335ZM27.3334 23.9987C27.5971 23.9987 27.8548 24.0769 28.0741 24.2234C28.2934 24.3699 28.4643 24.5782 28.5652 24.8218C28.6661 25.0654 28.6925 25.3335 28.6411 25.5922C28.5896 25.8508 28.4626 26.0884 28.2762 26.2748C28.0897 26.4613 27.8521 26.5883 27.5935 26.6397C27.3348 26.6912 27.0667 26.6648 26.8231 26.5639C26.5795 26.463 26.3712 26.2921 26.2247 26.0728C26.0782 25.8535 26 25.5957 26 25.332C26 24.9784 26.1405 24.6393 26.3905 24.3892C26.6406 24.1392 26.9797 23.9987 27.3334 23.9987Z" fill="#4951FF"/>
        <path d="M24.08 1.55923C23.4785 1.6947 22.9425 2.03446 22.5632 2.52066C22.184 3.00686 21.985 3.60947 22 4.2259V8.2259C21.9971 8.29918 21.971 8.36963 21.9255 8.42713C21.8799 8.48463 21.8174 8.52621 21.7467 8.5459C21.3248 8.6555 20.942 8.8811 20.6418 9.19713C20.3415 9.51315 20.1358 9.90696 20.048 10.3339C19.9601 10.7609 19.9936 11.2039 20.1446 11.6128C20.2957 12.0217 20.5583 12.3802 20.9026 12.6475C21.247 12.9147 21.6593 13.0802 22.0929 13.1252C22.5265 13.1701 22.964 13.0927 23.3558 12.9017C23.7477 12.7107 24.0781 12.4137 24.3098 12.0445C24.5415 11.6752 24.6652 11.2485 24.6667 10.8126V4.41256C24.6667 4.34044 24.6901 4.27026 24.7334 4.21256C24.7767 4.15487 24.8375 4.11276 24.9067 4.09256L28.9067 2.75923C28.9572 2.74217 29.011 2.73747 29.0637 2.74551C29.1164 2.75355 29.1664 2.77411 29.2095 2.80545C29.2526 2.83679 29.2875 2.87801 29.3114 2.92564C29.3353 2.97328 29.3474 3.02595 29.3467 3.07923V5.47923C29.3438 5.55251 29.3176 5.62296 29.2721 5.68046C29.2266 5.73796 29.164 5.77955 29.0934 5.79923C28.6701 5.90652 28.2855 6.13042 27.9831 6.44548C27.6808 6.76053 27.473 7.15409 27.3832 7.58141C27.2935 8.00873 27.3254 8.45266 27.4754 8.86272C27.6255 9.27278 27.8875 9.63252 28.2319 9.90103C28.5762 10.1695 28.9889 10.336 29.4232 10.3816C29.8575 10.4272 30.2958 10.35 30.6884 10.1588C31.0809 9.96763 31.412 9.67014 31.6438 9.30015C31.8757 8.93017 31.9991 8.50254 32 8.0659V2.6659C32.0069 2.27004 31.9255 1.87763 31.7618 1.51714C31.5981 1.15666 31.3562 0.837151 31.0536 0.581814C30.751 0.326476 30.3954 0.141716 30.0125 0.0409467C29.6296 -0.0598227 29.2291 -0.0740728 28.84 -0.000769258L24.08 1.55923Z" fill="#4951FF"/>
    </g>
    <defs>
        <clipPath id="clip0_0_88">
            <rect width="32" height="32" fill="white"/>
        </clipPath>
    </defs>
</svg>
