<svg width="32" height="32" viewBox="0 0 32 32" fill="none" xmlns="http://www.w3.org/2000/svg">
    <g clip-path="url(#clip0_0_119)">
        <path d="M2.82812 14.9504L29.1138 2.99609" stroke="#4951FF" stroke-width="3.42857" stroke-linecap="round" stroke-linejoin="round"/>
        <path d="M24.2031 1.14453L29.1174 2.99596L27.2888 7.91025" stroke="#4951FF" stroke-width="3.42857" stroke-linecap="round" stroke-linejoin="round"/>
        <path d="M30.2846 30.8577H24.5703V14.8577C24.5703 14.5546 24.6907 14.2639 24.905 14.0496C25.1194 13.8353 25.4101 13.7148 25.7132 13.7148H29.1417C29.4448 13.7148 29.7355 13.8353 29.9499 14.0496C30.1642 14.2639 30.2846 14.5546 30.2846 14.8577V30.8577Z" fill="#4951FF"/>
        <path d="M18.8549 30.8588H13.1406V18.2874C13.1406 17.9843 13.261 17.6936 13.4754 17.4793C13.6897 17.2649 13.9804 17.1445 14.2835 17.1445H17.7121C18.0152 17.1445 18.3058 17.2649 18.5202 17.4793C18.7345 17.6936 18.8549 17.9843 18.8549 18.2874V30.8588Z" fill="#4951FF"/>
        <path d="M7.42522 30.8599H1.71094V21.7171C1.71094 21.414 1.83135 21.1233 2.04567 20.909C2.26 20.6946 2.55069 20.5742 2.85379 20.5742H6.28237C6.58547 20.5742 6.87616 20.6946 7.09049 20.909C7.30481 21.1233 7.42522 21.414 7.42522 21.7171V30.8599Z" fill="#4951FF"/>
        <path d="M30.2846 30.8577H24.5703V14.8577C24.5703 14.5546 24.6907 14.2639 24.905 14.0496C25.1194 13.8353 25.4101 13.7148 25.7132 13.7148H29.1417C29.4448 13.7148 29.7355 13.8353 29.9499 14.0496C30.1642 14.2639 30.2846 14.5546 30.2846 14.8577V30.8577Z" fill="#080934" stroke="#4951FF" stroke-width="3.42857" stroke-linecap="round" stroke-linejoin="round"/>
        <path d="M18.8549 30.8588H13.1406V18.2874C13.1406 17.9843 13.261 17.6936 13.4754 17.4793C13.6897 17.2649 13.9804 17.1445 14.2835 17.1445H17.7121C18.0152 17.1445 18.3058 17.2649 18.5202 17.4793C18.7345 17.6936 18.8549 17.9843 18.8549 18.2874V30.8588Z" fill="#080934" stroke="#4951FF" stroke-width="3.42857" stroke-linecap="round" stroke-linejoin="round"/>
        <path d="M7.42522 30.8599H1.71094V21.7171C1.71094 21.414 1.83135 21.1233 2.04567 20.909C2.26 20.6946 2.55069 20.5742 2.85379 20.5742H6.28237C6.58547 20.5742 6.87616 20.6946 7.09049 20.909C7.30481 21.1233 7.42522 21.414 7.42522 21.7171V30.8599Z" fill="#080934" stroke="#4951FF" stroke-width="3.42857" stroke-linecap="round" stroke-linejoin="round"/>
    </g>
    <defs>
        <clipPath id="clip0_0_119">
            <rect width="32" height="32" fill="white"/>
        </clipPath>
    </defs>
</svg>
