<svg width="32" height="32" viewBox="0 0 32 32" fill="none" xmlns="http://www.w3.org/2000/svg">
    <path d="M15.9948 9.33203C14.6763 9.33203 13.3873 9.72302 12.291 10.4556C11.1947 11.1881 10.3402 12.2293 9.8356 13.4475C9.33101 14.6656 9.19899 16.0061 9.45623 17.2993C9.71346 18.5925 10.3484 19.7804 11.2807 20.7127C12.2131 21.6451 13.401 22.28 14.6942 22.5373C15.9874 22.7945 17.3278 22.6625 18.546 22.1579C19.7642 21.6533 20.8054 20.7988 21.5379 19.7025C22.2705 18.6062 22.6615 17.3172 22.6615 15.9987C22.6615 14.2306 21.9591 12.5349 20.7088 11.2847C19.4586 10.0344 17.7629 9.33203 15.9948 9.33203ZM18.8881 16.7054L15.1415 18.5854C15.0231 18.6507 14.89 18.685 14.7548 18.685C14.6196 18.685 14.4865 18.6507 14.3681 18.5854C14.2561 18.5133 14.1634 18.4148 14.0983 18.2986C14.0332 18.1824 13.9977 18.0519 13.9948 17.9187V14.1187C13.9977 13.9855 14.0332 13.855 14.0983 13.7388C14.1634 13.6225 14.2561 13.5241 14.3681 13.452C14.4865 13.3867 14.6196 13.3524 14.7548 13.3524C14.89 13.3524 15.0231 13.3867 15.1415 13.452L18.8881 15.332C19.0204 15.3967 19.1319 15.4973 19.2099 15.6222C19.2878 15.7471 19.3292 15.8914 19.3292 16.0387C19.3292 16.186 19.2878 16.3303 19.2099 16.4552C19.1319 16.5801 19.0204 16.6807 18.8881 16.7454V16.7054Z" fill="#4951FF"/>
    <path d="M9.86446 9.86771C10.057 9.61095 10.1505 9.29334 10.1278 8.97319C10.105 8.65305 9.96755 8.35185 9.7406 8.1249C9.51365 7.89795 9.21246 7.76048 8.89231 7.73773C8.57216 7.71498 8.25455 7.80847 7.99779 8.00104C5.88733 10.1287 4.70313 13.0042 4.70312 16.001C4.70313 18.9979 5.88733 21.8733 7.99779 24.001C8.12238 24.1246 8.27013 24.2224 8.43258 24.2887C8.59503 24.3551 8.76898 24.3887 8.94446 24.3877C9.28962 24.3828 9.61941 24.2442 9.86446 24.001C10.1128 23.7512 10.2522 23.4133 10.2522 23.061C10.2522 22.7088 10.1128 22.3709 9.86446 22.121C8.24662 20.4924 7.33862 18.29 7.33862 15.9944C7.33862 13.6988 8.24662 11.4963 9.86446 9.86771Z" fill="#4951FF"/>
    <path d="M24.0016 7.99818C23.8869 7.84535 23.7408 7.71894 23.5731 7.62751C23.4054 7.53607 23.22 7.48174 23.0294 7.4682C22.8389 7.45466 22.6476 7.48222 22.4687 7.54902C22.2897 7.61581 22.1272 7.72029 21.9921 7.85537C21.857 7.99045 21.7525 8.15297 21.6857 8.33194C21.6189 8.51091 21.5914 8.70215 21.6049 8.8927C21.6185 9.08324 21.6728 9.26866 21.7642 9.43638C21.8557 9.60411 21.9821 9.75023 22.1349 9.86484C23.7568 11.494 24.6674 13.6993 24.6674 15.9982C24.6674 18.297 23.7568 20.5023 22.1349 22.1315C21.8866 22.3813 21.7472 22.7193 21.7472 23.0715C21.7472 23.4238 21.8866 23.7617 22.1349 24.0115C22.3832 24.2578 22.7184 24.3967 23.0682 24.3982C23.4199 24.3932 23.7554 24.2494 24.0016 23.9982C26.112 21.8705 27.2962 18.995 27.2962 15.9982C27.2962 13.0013 26.112 10.1259 24.0016 7.99818Z" fill="#4951FF"/>
    <path d="M6.37105 7.04002C6.61939 6.79021 6.75878 6.45227 6.75878 6.10002C6.75878 5.74778 6.61939 5.40984 6.37105 5.16002C6.2471 5.03505 6.09964 4.93586 5.93716 4.86817C5.77468 4.80048 5.6004 4.76562 5.42439 4.76562C5.24837 4.76562 5.0741 4.80048 4.91162 4.86817C4.74914 4.93586 4.60167 5.03505 4.47772 5.16002C1.61008 8.03884 0 11.9367 0 16C0 20.0634 1.61008 23.9612 4.47772 26.84C4.60167 26.965 4.74914 27.0642 4.91162 27.1319C5.0741 27.1996 5.24837 27.2344 5.42439 27.2344C5.6004 27.2344 5.77468 27.1996 5.93716 27.1319C6.09964 27.0642 6.2471 26.965 6.37105 26.84C6.61939 26.5902 6.75878 26.2523 6.75878 25.9C6.75878 25.5478 6.61939 25.2098 6.37105 24.96C3.99683 22.5826 2.66328 19.36 2.66328 16C2.66328 12.6401 3.99683 9.41749 6.37105 7.04002Z" fill="#4951FF"/>
    <path d="M27.5154 5.16002C27.3915 5.03505 27.244 4.93586 27.0815 4.86817C26.9191 4.80048 26.7448 4.76562 26.5688 4.76562C26.3928 4.76562 26.2185 4.80048 26.056 4.86817C25.8935 4.93586 25.746 5.03505 25.6221 5.16002C25.3738 5.40984 25.2344 5.74778 25.2344 6.10002C25.2344 6.45227 25.3738 6.79021 25.6221 7.04002C27.9963 9.41749 29.3299 12.6401 29.3299 16C29.3299 19.36 27.9963 22.5826 25.6221 24.96C25.3738 25.2098 25.2344 25.5478 25.2344 25.9C25.2344 26.2523 25.3738 26.5902 25.6221 26.84C25.746 26.965 25.8935 27.0642 26.056 27.1319C26.2185 27.1996 26.3928 27.2344 26.5688 27.2344C26.7448 27.2344 26.9191 27.1996 27.0815 27.1319C27.244 27.0642 27.3915 26.965 27.5154 26.84C30.3831 23.9612 31.9932 20.0634 31.9932 16C31.9932 11.9367 30.3831 8.03884 27.5154 5.16002Z" fill="#4951FF"/>
</svg>
