<svg width="32" height="32" viewBox="0 0 32 32" fill="none" xmlns="http://www.w3.org/2000/svg">
    <path d="M8.02075 9.45703H6.01018C5.73812 9.45703 5.4772 9.56612 5.28483 9.7603C5.09245 9.95448 4.98438 10.2178 4.98438 10.4925C4.98438 10.7671 5.09245 11.0304 5.28483 11.2246C5.4772 11.4188 5.73812 11.5279 6.01018 11.5279H8.06178C8.33384 11.5279 8.59476 11.4188 8.78714 11.2246C8.97951 11.0304 9.08759 10.7671 9.08759 10.4925C9.08759 10.2178 8.97951 9.95448 8.78714 9.7603C8.59476 9.56612 8.33384 9.45703 8.06178 9.45703H8.02075Z" fill="#4951FF"/>
    <path d="M8.02075 13.5977H6.01018C5.73812 13.5977 5.4772 13.7067 5.28483 13.9009C5.09245 14.0951 4.98438 14.3585 4.98438 14.6331C4.98438 14.9077 5.09245 15.1711 5.28483 15.3652C5.4772 15.5594 5.73812 15.6685 6.01018 15.6685H8.06178C8.19649 15.6685 8.32989 15.6417 8.45434 15.5897C8.5788 15.5377 8.69188 15.4614 8.78714 15.3652C8.88239 15.2691 8.95795 15.1549 9.0095 15.0293C9.06105 14.9037 9.08759 14.7691 9.08759 14.6331C9.08759 14.4971 9.06105 14.3625 9.0095 14.2368C8.95795 14.1112 8.88239 13.9971 8.78714 13.9009C8.69188 13.8048 8.5788 13.7285 8.45434 13.6765C8.32989 13.6244 8.19649 13.5977 8.06178 13.5977H8.02075Z" fill="#4951FF"/>
    <path d="M8.02075 17.7383H6.01018C5.73812 17.7383 5.4772 17.8474 5.28483 18.0415C5.09245 18.2357 4.98438 18.4991 4.98438 18.7737C4.98438 19.0483 5.09245 19.3117 5.28483 19.5059C5.4772 19.7 5.73812 19.8091 6.01018 19.8091H8.06178C8.33384 19.8091 8.59476 19.7 8.78714 19.5059C8.97951 19.3117 9.08759 19.0483 9.08759 18.7737C9.08759 18.4991 8.97951 18.2357 8.78714 18.0415C8.59476 17.8474 8.33384 17.7383 8.06178 17.7383H8.02075Z" fill="#4951FF"/>
    <path d="M19.308 11.524H12.1274C11.8553 11.524 11.5944 11.4149 11.402 11.2207C11.2096 11.0265 11.1016 10.7632 11.1016 10.4885C11.1016 10.2139 11.2096 9.95057 11.402 9.75639C11.5944 9.56221 11.8553 9.45313 12.1274 9.45312H19.308C19.58 9.45313 19.841 9.56221 20.0333 9.75639C20.2257 9.95057 20.3338 10.2139 20.3338 10.4885C20.3338 10.7632 20.2257 11.0265 20.0333 11.2207C19.841 11.4149 19.58 11.524 19.308 11.524Z" fill="#4951FF"/>
    <path d="M15.5877 13.5977H12.1274C11.8553 13.5977 11.5944 13.7067 11.402 13.9009C11.2096 14.0951 11.1016 14.3585 11.1016 14.6331C11.1016 14.9077 11.2096 15.1711 11.402 15.3652C11.5944 15.5594 11.8553 15.6685 12.1274 15.6685H15.5877C15.8598 15.6685 16.1207 15.5594 16.3131 15.3652C16.5055 15.1711 16.6135 14.9077 16.6135 14.6331C16.6135 14.3585 16.5055 14.0951 16.3131 13.9009C16.1207 13.7067 15.8598 13.5977 15.5877 13.5977Z" fill="#4951FF"/>
    <path d="M14.5209 17.7383H12.1274C11.8553 17.7383 11.5944 17.8474 11.402 18.0415C11.2096 18.2357 11.1016 18.4991 11.1016 18.7737C11.1016 19.0483 11.2096 19.3117 11.402 19.5059C11.5944 19.7 11.8553 19.8091 12.1274 19.8091H14.5209C14.793 19.8091 15.0539 19.7 15.2463 19.5059C15.4386 19.3117 15.5467 19.0483 15.5467 18.7737C15.5467 18.4991 15.4386 18.2357 15.2463 18.0415C15.0539 17.8474 14.793 17.7383 14.5209 17.7383Z" fill="#4951FF"/>
    <path d="M16.7274 24.4636V23.442H2.73547V6.72335H24.6193V15.1172C24.8832 15.0511 25.1543 15.0186 25.4262 15.0205C25.8029 15.0171 26.1774 15.0778 26.5341 15.2L27.3548 15.4761V2.76113C27.3548 2.02883 27.0665 1.32653 26.5535 0.808716C26.0405 0.290904 25.3448 0 24.6193 0H2.73547C2.00998 0 1.3142 0.290904 0.801202 0.808716C0.288201 1.32653 0 2.02883 0 2.76113V23.4696C0 24.2019 0.288201 24.9042 0.801202 25.422C1.3142 25.9398 2.00998 26.2307 2.73547 26.2307H16.9599C16.8251 25.6508 16.7472 25.0589 16.7274 24.4636Z" fill="#4951FF"/>
    <path d="M31.0675 18.9655L25.829 17.157C25.5409 17.057 25.2281 17.057 24.94 17.157L19.6879 18.9655C19.4184 19.0574 19.184 19.2317 19.0173 19.4643C18.8506 19.6969 18.7599 19.9762 18.7578 20.2632V24.4049C18.7892 25.8612 19.2371 27.2773 20.0476 28.4825C20.8582 29.6876 21.9967 30.6305 23.3261 31.1973L24.8032 31.8738C24.9814 31.9558 25.175 31.9983 25.3708 31.9983C25.5667 31.9983 25.7602 31.9558 25.9384 31.8738L27.4156 31.1973C28.7392 30.6364 29.8749 29.7029 30.6874 28.5084C31.4998 27.3138 31.9546 25.9085 31.9975 24.4602V20.3185C32.007 20.022 31.9217 19.7304 31.7542 19.4867C31.5867 19.243 31.3459 19.0603 31.0675 18.9655ZM29.3988 22.1822L25.4187 27.1937C25.3284 27.3059 25.2158 27.3978 25.0882 27.4634C24.9606 27.5291 24.8208 27.567 24.6778 27.5748C24.5348 27.5826 24.3917 27.5601 24.2579 27.5087C24.124 27.4574 24.0023 27.3783 23.9005 27.2765L21.9173 25.2747C21.8205 25.1795 21.7436 25.0657 21.6911 24.9401C21.6386 24.8144 21.6115 24.6794 21.6115 24.543C21.6115 24.4066 21.6386 24.2716 21.6911 24.1459C21.7436 24.0203 21.8205 23.9065 21.9173 23.8113C22.1096 23.6174 22.3703 23.5085 22.6422 23.5085C22.914 23.5085 23.1748 23.6174 23.3671 23.8113L24.5433 24.9986L27.7986 20.8569C27.883 20.7508 27.9873 20.6626 28.1055 20.5972C28.2237 20.5318 28.3535 20.4906 28.4875 20.4759C28.6215 20.4611 28.757 20.4732 28.8864 20.5113C29.0158 20.5494 29.1364 20.6129 29.2415 20.6981C29.3466 20.7833 29.434 20.8886 29.4988 21.0079C29.5636 21.1272 29.6044 21.2582 29.619 21.3935C29.6336 21.5287 29.6217 21.6656 29.5839 21.7962C29.5461 21.9268 29.4832 22.0486 29.3988 22.1546V22.1822Z" fill="#4951FF"/>
</svg>
