<svg width="32" height="32" viewBox="0 0 32 32" fill="none" xmlns="http://www.w3.org/2000/svg">
    <g clip-path="url(#clip0_0_93)">
        <path d="M9.33594 8.33203C9.60115 8.33203 9.85551 8.22667 10.043 8.03914C10.2306 7.8516 10.3359 7.59725 10.3359 7.33203V6.33203C10.3359 6.06681 10.2306 5.81246 10.043 5.62492C9.85551 5.43739 9.60115 5.33203 9.33594 5.33203C9.07072 5.33203 8.81637 5.43739 8.62883 5.62492C8.44129 5.81246 8.33594 6.06681 8.33594 6.33203V7.33203C8.33594 7.59725 8.44129 7.8516 8.62883 8.03914C8.81637 8.22667 9.07072 8.33203 9.33594 8.33203Z" fill="#4951FF"/>
        <path d="M9.33594 14.332C9.07179 14.3355 8.81944 14.442 8.63265 14.6287C8.44586 14.8155 8.33939 15.0679 8.33594 15.332V16.6654C8.33594 16.9306 8.44129 17.1849 8.62883 17.3725C8.81637 17.56 9.07072 17.6654 9.33594 17.6654C9.60115 17.6654 9.85551 17.56 10.043 17.3725C10.2306 17.1849 10.3359 16.9306 10.3359 16.6654V15.332C10.3325 15.0679 10.226 14.8155 10.0392 14.6287C9.85243 14.442 9.60008 14.3355 9.33594 14.332Z" fill="#4951FF"/>
        <path d="M9.24053 9.33373C8.8456 9.35259 8.46513 9.48809 8.14717 9.72309C7.82922 9.9581 7.58805 10.2821 7.45414 10.6541C7.32023 11.0261 7.29959 11.4294 7.39482 11.8132C7.49005 12.1969 7.69688 12.5438 7.98919 12.8101C8.28149 13.0763 8.64615 13.2499 9.03708 13.309C9.42802 13.3681 9.8277 13.31 10.1856 13.142C10.5435 12.974 10.8436 12.7037 11.048 12.3653C11.2524 12.0268 11.3519 11.6354 11.3339 11.2404C11.3062 10.711 11.0709 10.2139 10.679 9.85691C10.2871 9.49994 9.7702 9.31195 9.24053 9.33373Z" fill="#4951FF"/>
        <path d="M22.6641 8.33203C22.9293 8.33203 23.1836 8.22667 23.3712 8.03914C23.5587 7.8516 23.6641 7.59725 23.6641 7.33203V6.33203C23.6641 6.06681 23.5587 5.81246 23.3712 5.62492C23.1836 5.43739 22.9293 5.33203 22.6641 5.33203C22.3988 5.33203 22.1445 5.43739 21.957 5.62492C21.7694 5.81246 21.6641 6.06681 21.6641 6.33203V7.33203C21.6641 7.59725 21.7694 7.8516 21.957 8.03914C22.1445 8.22667 22.3988 8.33203 22.6641 8.33203Z" fill="#4951FF"/>
        <path d="M22.6641 14.332C22.3999 14.3355 22.1476 14.442 21.9608 14.6287C21.774 14.8155 21.6675 15.0679 21.6641 15.332V16.6654C21.6641 16.9306 21.7694 17.1849 21.957 17.3725C22.1445 17.56 22.3988 17.6654 22.6641 17.6654C22.9293 17.6654 23.1836 17.56 23.3712 17.3725C23.5587 17.1849 23.6641 16.9306 23.6641 16.6654V15.332C23.6606 15.0679 23.5541 14.8155 23.3674 14.6287C23.1806 14.442 22.9282 14.3355 22.6641 14.332Z" fill="#4951FF"/>
        <path d="M22.5765 9.33373C22.1815 9.35259 21.8011 9.48809 21.4831 9.72309C21.1652 9.9581 20.924 10.2821 20.7901 10.6541C20.6562 11.0261 20.6355 11.4294 20.7308 11.8132C20.826 12.1969 21.0328 12.5438 21.3251 12.8101C21.6174 13.0763 21.9821 13.2499 22.373 13.309C22.764 13.3681 23.1636 13.31 23.5216 13.142C23.8795 12.974 24.1796 12.7037 24.384 12.3653C24.5883 12.0268 24.6878 11.6354 24.6698 11.2404C24.6422 10.711 24.4068 10.2139 24.0149 9.85691C23.623 9.49994 23.1061 9.31195 22.5765 9.33373Z" fill="#4951FF"/>
        <path d="M16 10.668C15.7359 10.6714 15.4835 10.7779 15.2967 10.9647C15.1099 11.1515 15.0035 11.4038 15 11.668V16.3346C15 16.5999 15.1054 16.8542 15.2929 17.0417C15.4804 17.2293 15.7348 17.3346 16 17.3346C16.2652 17.3346 16.5196 17.2293 16.7071 17.0417C16.8946 16.8542 17 16.5999 17 16.3346V11.668C16.9965 11.4038 16.8901 11.1515 16.7033 10.9647C16.5165 10.7779 16.2641 10.6714 16 10.668Z" fill="#4951FF"/>
        <path d="M16.0904 5.33407C15.696 5.31624 15.3052 5.41551 14.9671 5.61939C14.629 5.82328 14.3589 6.12265 14.1907 6.4798C14.0224 6.83694 13.9637 7.23588 14.0218 7.62637C14.0799 8.01685 14.2522 8.3814 14.5172 8.6741C14.7821 8.9668 15.1277 9.17456 15.5104 9.27119C15.8932 9.36782 16.296 9.34902 16.6681 9.21713C17.0402 9.08525 17.365 8.8462 17.6015 8.53008C17.8379 8.21397 17.9756 7.83494 17.997 7.44074C18.0224 6.90882 17.8361 6.38851 17.4787 5.99368C17.1214 5.59886 16.6222 5.36168 16.0904 5.33407Z" fill="#4951FF"/>
        <path d="M30 0H2C1.46957 0 0.960859 0.210714 0.585786 0.585786C0.210714 0.960859 0 1.46957 0 2L0 23.3333C0 23.8638 0.210714 24.3725 0.585786 24.7475C0.960859 25.1226 1.46957 25.3333 2 25.3333H30C30.5304 25.3333 31.0391 25.1226 31.4142 24.7475C31.7893 24.3725 32 23.8638 32 23.3333V2C32 1.46957 31.7893 0.960859 31.4142 0.585786C31.0391 0.210714 30.5304 0 30 0ZM29.3333 19.3333C29.3333 19.5101 29.2631 19.6797 29.1381 19.8047C29.013 19.9298 28.8435 20 28.6667 20H3.33333C3.15652 20 2.98695 19.9298 2.86193 19.8047C2.7369 19.6797 2.66667 19.5101 2.66667 19.3333V3.33333C2.66667 3.15652 2.7369 2.98695 2.86193 2.86193C2.98695 2.7369 3.15652 2.66667 3.33333 2.66667H28.6667C28.8435 2.66667 29.013 2.7369 29.1381 2.86193C29.2631 2.98695 29.3333 3.15652 29.3333 3.33333V19.3333Z" fill="#4951FF"/>
        <path d="M19.1359 27.572C19.0779 27.5031 19.0068 27.4464 18.9267 27.4052C18.8466 27.364 18.7591 27.3391 18.6692 27.332H13.3359C13.2396 27.3354 13.1449 27.3584 13.0578 27.3996C12.9706 27.4409 12.8929 27.4996 12.8292 27.572L10.0292 30.9454C9.96419 31.0493 9.92969 31.1694 9.92969 31.292C9.92969 31.4146 9.96419 31.5348 10.0292 31.6387C10.0861 31.7571 10.178 31.8552 10.2925 31.9196C10.407 31.984 10.5385 32.0116 10.6692 31.9987H21.3359C21.4568 31.9949 21.5744 31.9589 21.6767 31.8945C21.779 31.8301 21.8623 31.7396 21.918 31.6323C21.9737 31.525 21.9998 31.4047 21.9935 31.284C21.9873 31.1633 21.949 31.0464 21.8826 30.9454L19.1359 27.572Z" fill="#4951FF"/>
    </g>
    <defs>
        <clipPath id="clip0_0_93">
            <rect width="32" height="32" fill="white"/>
        </clipPath>
    </defs>
</svg>
