<svg width="32" height="30" viewBox="0 0 32 30" fill="none" xmlns="http://www.w3.org/2000/svg">
    <path d="M31.6667 22.828C31.7551 22.828 31.8399 22.7936 31.9024 22.7324C31.9649 22.6713 32 22.5884 32 22.5019V7.50187C32 7.41538 31.9649 7.33244 31.9024 7.27129C31.8399 7.21014 31.7551 7.17578 31.6667 7.17578H0.333333C0.244928 7.17578 0.160143 7.21014 0.0976311 7.27129C0.035119 7.33244 0 7.41538 0 7.50187L0 22.5019C0 22.5884 0.035119 22.6713 0.0976311 22.7324C0.160143 22.7936 0.244928 22.828 0.333333 22.828H31.6667ZM11.84 11.0888C11.839 10.9784 11.8678 10.8698 11.9236 10.7738C11.9793 10.6778 12.06 10.598 12.1575 10.5424C12.255 10.4868 12.3657 10.4574 12.4786 10.4571C12.5914 10.4569 12.7023 10.4858 12.8 10.541L19.84 14.454C19.9366 14.5109 20.0166 14.5912 20.0721 14.6872C20.1276 14.7832 20.1568 14.8916 20.1568 15.0019C20.1568 15.1122 20.1276 15.2206 20.0721 15.3166C20.0166 15.4126 19.9366 15.4929 19.84 15.5497L12.8 19.4627C12.7023 19.5179 12.5914 19.5469 12.4786 19.5466C12.3657 19.5464 12.255 19.517 12.1575 19.4613C12.06 19.4057 11.9793 19.3259 11.9236 19.2299C11.8678 19.134 11.839 19.0253 11.84 18.9149V11.0888Z" fill="#4951FF"/>
    <path d="M28.6667 0H3.33333C2.44928 0 1.60143 0.343555 0.976311 0.955087C0.351189 1.56662 0 2.39603 0 3.26087L0 5.21739C0 5.39036 0.0702379 5.55624 0.195262 5.67855C0.320286 5.80085 0.489856 5.86957 0.666667 5.86957H31.3333C31.5101 5.86957 31.6797 5.80085 31.8047 5.67855C31.9298 5.55624 32 5.39036 32 5.21739V3.26087C32 2.83265 31.9138 2.40862 31.7463 2.01299C31.5787 1.61736 31.3332 1.25789 31.0237 0.955087C30.7142 0.652287 30.3467 0.412093 29.9423 0.248219C29.5379 0.0843449 29.1044 0 28.6667 0ZM5 3.91304C4.80222 3.91304 4.60888 3.85567 4.44443 3.74818C4.27998 3.64068 4.15181 3.4879 4.07612 3.30915C4.00043 3.13039 3.98063 2.9337 4.01921 2.74393C4.0578 2.55417 4.15304 2.37986 4.29289 2.24305C4.43275 2.10624 4.61093 2.01307 4.80491 1.97532C4.99889 1.93757 5.19996 1.95695 5.38268 2.03099C5.56541 2.10503 5.72159 2.23042 5.83147 2.39129C5.94135 2.55216 6 2.7413 6 2.93478C5.99655 3.19318 5.89008 3.44005 5.70329 3.62278C5.5165 3.80551 5.26414 3.90967 5 3.91304ZM12.3333 3.91304C12.1356 3.91304 11.9422 3.85567 11.7778 3.74818C11.6133 3.64068 11.4851 3.4879 11.4095 3.30915C11.3338 3.13039 11.314 2.9337 11.3525 2.74393C11.3911 2.55417 11.4864 2.37986 11.6262 2.24305C11.7661 2.10624 11.9443 2.01307 12.1382 1.97532C12.3322 1.93757 12.5333 1.95695 12.716 2.03099C12.8987 2.10503 13.0549 2.23042 13.1648 2.39129C13.2747 2.55216 13.3333 2.7413 13.3333 2.93478C13.3299 3.19318 13.2234 3.44005 13.0366 3.62278C12.8498 3.80551 12.5975 3.90967 12.3333 3.91304ZM19.6667 3.91304C19.4689 3.91304 19.2755 3.85567 19.1111 3.74818C18.9466 3.64068 18.8185 3.4879 18.7428 3.30915C18.6671 3.13039 18.6473 2.9337 18.6859 2.74393C18.7245 2.55417 18.8197 2.37986 18.9596 2.24305C19.0994 2.10624 19.2776 2.01307 19.4716 1.97532C19.6656 1.93757 19.8666 1.95695 20.0494 2.03099C20.2321 2.10503 20.3883 2.23042 20.4981 2.39129C20.608 2.55216 20.6667 2.7413 20.6667 2.93478C20.6632 3.19318 20.5567 3.44005 20.37 3.62278C20.1832 3.80551 19.9308 3.90967 19.6667 3.91304ZM27 3.91304C26.8022 3.91304 26.6089 3.85567 26.4444 3.74818C26.28 3.64068 26.1518 3.4879 26.0761 3.30915C26.0004 3.13039 25.9806 2.9337 26.0192 2.74393C26.0578 2.55417 26.153 2.37986 26.2929 2.24305C26.4327 2.10624 26.6109 2.01307 26.8049 1.97532C26.9989 1.93757 27.2 1.95695 27.3827 2.03099C27.5654 2.10503 27.7216 2.23042 27.8315 2.39129C27.9414 2.55216 28 2.7413 28 2.93478C27.9965 3.19318 27.8901 3.44005 27.7033 3.62278C27.5165 3.80551 27.2641 3.90967 27 3.91304Z" fill="#4951FF"/>
    <path d="M31.3333 24.1289H0.666667C0.489856 24.1289 0.320286 24.1976 0.195262 24.3199C0.0702379 24.4422 0 24.6081 0 24.7811L0 26.7376C0 27.6024 0.351189 28.4319 0.976311 29.0434C1.60143 29.6549 2.44928 29.9985 3.33333 29.9985H28.6667C29.1044 29.9985 29.5379 29.9141 29.9423 29.7503C30.3467 29.5864 30.7142 29.3462 31.0237 29.0434C31.3332 28.7406 31.5787 28.3811 31.7463 27.9855C31.9138 27.5899 32 27.1658 32 26.7376V24.7811C32 24.6081 31.9298 24.4422 31.8047 24.3199C31.6797 24.1976 31.5101 24.1289 31.3333 24.1289ZM5 28.0419C4.80222 28.0419 4.60888 27.9846 4.44443 27.8771C4.27998 27.7696 4.15181 27.6168 4.07612 27.4381C4.00043 27.2593 3.98063 27.0626 4.01921 26.8728C4.0578 26.6831 4.15304 26.5088 4.29289 26.372C4.43275 26.2351 4.61093 26.142 4.80491 26.1042C4.99889 26.0665 5.19996 26.0859 5.38268 26.1599C5.56541 26.2339 5.72159 26.3593 5.83147 26.5202C5.94135 26.6811 6 26.8702 6 27.0637C5.99655 27.3221 5.89008 27.569 5.70329 27.7517C5.5165 27.9344 5.26414 28.0386 5 28.0419ZM12.3333 28.0419C12.1356 28.0419 11.9422 27.9846 11.7778 27.8771C11.6133 27.7696 11.4851 27.6168 11.4095 27.4381C11.3338 27.2593 11.314 27.0626 11.3525 26.8728C11.3911 26.6831 11.4864 26.5088 11.6262 26.372C11.7661 26.2351 11.9443 26.142 12.1382 26.1042C12.3322 26.0665 12.5333 26.0859 12.716 26.1599C12.8987 26.2339 13.0549 26.3593 13.1648 26.5202C13.2747 26.6811 13.3333 26.8702 13.3333 27.0637C13.3299 27.3221 13.2234 27.569 13.0366 27.7517C12.8498 27.9344 12.5975 28.0386 12.3333 28.0419ZM19.6667 28.0419C19.4689 28.0419 19.2755 27.9846 19.1111 27.8771C18.9466 27.7696 18.8185 27.6168 18.7428 27.4381C18.6671 27.2593 18.6473 27.0626 18.6859 26.8728C18.7245 26.6831 18.8197 26.5088 18.9596 26.372C19.0994 26.2351 19.2776 26.142 19.4716 26.1042C19.6656 26.0665 19.8666 26.0859 20.0494 26.1599C20.2321 26.2339 20.3883 26.3593 20.4981 26.5202C20.608 26.6811 20.6667 26.8702 20.6667 27.0637C20.6632 27.3221 20.5567 27.569 20.37 27.7517C20.1832 27.9344 19.9308 28.0386 19.6667 28.0419ZM27 28.0419C26.8022 28.0419 26.6089 27.9846 26.4444 27.8771C26.28 27.7696 26.1518 27.6168 26.0761 27.4381C26.0004 27.2593 25.9806 27.0626 26.0192 26.8728C26.0578 26.6831 26.153 26.5088 26.2929 26.372C26.4327 26.2351 26.6109 26.142 26.8049 26.1042C26.9989 26.0665 27.2 26.0859 27.3827 26.1599C27.5654 26.2339 27.7216 26.3593 27.8315 26.5202C27.9414 26.6811 28 26.8702 28 27.0637C27.9965 27.3221 27.8901 27.569 27.7033 27.7517C27.5165 27.9344 27.2641 28.0386 27 28.0419Z" fill="#4951FF"/>
</svg>
