<svg width="32" height="32" viewBox="0 0 32 32" fill="none" xmlns="http://www.w3.org/2000/svg">
    <rect width="32" height="32" rx="16" fill="#0A66C2"/>
    <path d="M23.5008 7.20001H8.49923C8.15466 7.20001 7.8242 7.33689 7.58055 7.58055C7.33689 7.8242 7.20001 8.15466 7.20001 8.49923V23.5008C7.20001 23.8454 7.33689 24.1758 7.58055 24.4195C7.8242 24.6631 8.15466 24.8 8.49923 24.8H23.5008C23.8454 24.8 24.1758 24.6631 24.4195 24.4195C24.6631 24.1758 24.8 23.8454 24.8 23.5008V8.49923C24.8 8.15466 24.6631 7.8242 24.4195 7.58055C24.1758 7.33689 23.8454 7.20001 23.5008 7.20001ZM12.4458 22.193H9.79968V13.7878H12.4458V22.193ZM11.1209 12.623C10.8207 12.6213 10.5278 12.5308 10.2791 12.3627C10.0304 12.1947 9.83696 11.9568 9.72332 11.679C9.60968 11.4012 9.58089 11.0959 9.64057 10.8017C9.70025 10.5076 9.84573 10.2377 10.0587 10.0261C10.2716 9.81456 10.5424 9.67081 10.837 9.61302C11.1315 9.55523 11.4366 9.58598 11.7136 9.7014C11.9907 9.81682 12.2274 10.0117 12.3938 10.2615C12.5602 10.5113 12.6489 10.8049 12.6487 11.105C12.6515 11.306 12.6139 11.5054 12.538 11.6915C12.4621 11.8776 12.3495 12.0465 12.2069 12.1882C12.0643 12.3298 11.8947 12.4414 11.7081 12.5161C11.5215 12.5908 11.3218 12.6271 11.1209 12.623ZM22.1991 22.2003H19.5542V17.6085C19.5542 16.2542 18.9786 15.8362 18.2355 15.8362C17.4508 15.8362 16.6808 16.4278 16.6808 17.6427V22.2003H14.0347V13.7939H16.5793V14.9587H16.6136C16.869 14.4417 17.7637 13.558 19.1289 13.558C20.6053 13.558 22.2003 14.4343 22.2003 17.001L22.1991 22.2003Z" fill="white"/>
</svg>
