<svg width="48" height="16" viewBox="0 0 48 16" fill="none" xmlns="http://www.w3.org/2000/svg">
    <path d="M26.2871 11.4004V13H21.2764V11.4004H26.2871ZM21.9395 3.04688V13H19.8887V3.04688H21.9395ZM29.6436 3.04688V13H27.5996V3.04688H29.6436ZM35.1533 10.9219L37.498 3.04688H39.7812L36.3154 13H34.8115L35.1533 10.9219ZM32.9932 3.04688L35.3311 10.9219L35.6865 13H34.1689L30.7236 3.04688H32.9932ZM47.3896 11.4004V13H42.0918V11.4004H47.3896ZM42.7617 3.04688V13H40.7109V3.04688H42.7617ZM46.6992 7.10059V8.65918H42.0918V7.10059H46.6992ZM47.3828 3.04688V4.65332H42.0918V3.04688H47.3828Z" fill="white"/>
    <circle cx="4.5" cy="8.5" r="4.5" fill="#FF3B30"/>
</svg>
