<svg width="22" height="20" viewBox="0 0 22 20" fill="none" xmlns="http://www.w3.org/2000/svg">
    <path d="M12.304 0.230572C12.475 0.104858 12.6751 0.0274456 12.8844 0.00606317C13.0936 -0.0153193 13.3047 0.0200768 13.4964 0.108717C13.6882 0.197357 13.854 0.33614 13.9772 0.511208C14.1005 0.686276 14.1769 0.891504 14.1988 1.1064L14.2053 1.23441V18.7644C14.2054 18.9805 14.1503 19.1928 14.0455 19.3802C13.9408 19.5676 13.79 19.7234 13.6083 19.8321C13.4266 19.9409 13.2203 19.9988 13.01 20C12.7998 20.0012 12.5929 19.9457 12.41 19.839L12.3051 19.7694L5.11392 14.4909H2.18544C1.63408 14.491 1.10303 14.2771 0.69874 13.8918C0.294455 13.5066 0.0468157 12.9785 0.00546371 12.4136L0 12.2451V7.75371C0.000101159 7.18734 0.208459 6.64192 0.583333 6.22672C0.958207 5.81153 1.47191 5.55721 2.02153 5.51474L2.18544 5.508H5.11392L12.304 0.230572ZM17.0311 6.82399L18.5762 8.41171L20.1213 6.82399C20.2221 6.71674 20.3427 6.6312 20.476 6.57235C20.6093 6.51351 20.7527 6.48253 20.8978 6.48124C21.0429 6.47994 21.1868 6.50835 21.3211 6.56481C21.4553 6.62127 21.5774 6.70464 21.6799 6.81007C21.7825 6.9155 21.8637 7.04087 21.9186 7.17886C21.9736 7.31686 22.0012 7.46471 22 7.61381C21.9987 7.7629 21.9686 7.91024 21.9113 8.04723C21.854 8.18423 21.7708 8.30813 21.6664 8.41171L20.1213 9.99943L21.6664 11.5871C21.8714 11.7977 21.9867 12.0833 21.9868 12.3812C21.9869 12.679 21.8718 12.9647 21.667 13.1754C21.4621 13.3861 21.1841 13.5045 20.8942 13.5047C20.6044 13.5048 20.3263 13.3865 20.1213 13.176L18.5762 11.586L17.0311 13.1749C16.8261 13.3854 16.548 13.5036 16.2582 13.5035C15.9683 13.5034 15.6903 13.385 15.4854 13.1743C15.2806 12.9636 15.1655 12.6779 15.1656 12.38C15.1657 12.0822 15.281 11.7966 15.486 11.586L17.0311 9.99943L15.486 8.41171C15.3816 8.30813 15.2984 8.18423 15.2411 8.04723C15.1838 7.91024 15.1537 7.7629 15.1524 7.61381C15.1512 7.46471 15.1788 7.31686 15.2338 7.17886C15.2887 7.04087 15.3699 6.9155 15.4725 6.81007C15.575 6.70464 15.6971 6.62127 15.8313 6.56481C15.9656 6.50835 16.1095 6.47994 16.2546 6.48124C16.3997 6.48253 16.5431 6.51351 16.6764 6.57235C16.8097 6.6312 16.9303 6.71674 17.0311 6.82399Z" fill="white"/>
</svg>
