<svg width="22" height="20" viewBox="0 0 22 20" fill="none" xmlns="http://www.w3.org/2000/svg">
    <path d="M17.2912 5.98014C17.1241 5.75046 16.8817 5.60389 16.6173 5.57266C16.3529 5.54142 16.0881 5.6281 15.8812 5.8136C15.6744 5.99911 15.5423 6.26826 15.5142 6.56183C15.4861 6.85541 15.5641 7.14937 15.7312 7.37905C16.2364 8.14168 16.5089 9.06362 16.5089 10.0103C16.5089 10.957 16.2364 11.879 15.7312 12.6416C15.612 12.8048 15.5369 13.0021 15.5147 13.2108C15.4925 13.4194 15.5241 13.6308 15.6058 13.8203C15.6875 14.0098 15.8159 14.1697 15.9762 14.2814C16.1365 14.3931 16.322 14.452 16.5112 14.4513C16.6606 14.4519 16.8082 14.4153 16.9432 14.3442C17.0782 14.2731 17.1971 14.1693 17.2912 14.0405C18.0844 12.8815 18.5139 11.4659 18.5139 10.0103C18.5139 8.5547 18.0844 7.13914 17.2912 5.98014Z" fill="white"/>
    <path d="M18.64 2.49136C18.5389 2.39805 18.4222 2.32776 18.2966 2.28451C18.171 2.24127 18.039 2.22591 17.9081 2.23931C17.7771 2.25271 17.6499 2.29462 17.5335 2.36263C17.4172 2.43064 17.314 2.52342 17.23 2.63569C17.146 2.74796 17.0826 2.8775 17.0437 3.01693C17.0047 3.15636 16.9909 3.30294 17.003 3.4483C17.0151 3.59367 17.0528 3.73497 17.114 3.86414C17.1753 3.99331 17.2589 4.10782 17.36 4.20113C18.162 4.88934 18.8153 5.76792 19.2721 6.77258C19.7289 7.77724 19.9776 8.88258 20 10.0077C19.9776 11.1328 19.7289 12.2382 19.2721 13.2428C18.8153 14.2475 18.162 15.1261 17.36 15.8143C17.2587 15.9075 17.175 16.0219 17.1137 16.1511C17.0523 16.2803 17.0145 16.4216 17.0025 16.5671C16.9904 16.7125 17.0043 16.8591 17.0433 16.9986C17.0824 17.138 17.1458 17.2675 17.23 17.3797C17.324 17.505 17.4418 17.6058 17.5748 17.6749C17.7079 17.744 17.8531 17.7797 18 17.7794C18.2337 17.7799 18.4601 17.6896 18.64 17.5241C19.6704 16.6297 20.5072 15.4902 21.0887 14.1894C21.6701 12.8887 21.9815 11.4597 22 10.0077C21.9815 8.5557 21.6701 7.12675 21.0887 5.82599C20.5072 4.52523 19.6704 3.38574 18.64 2.49136ZM13.47 0.148744C13.318 0.0513001 13.1455 0 12.97 0C12.7945 0 12.622 0.0513001 12.47 0.148744L6 5.08933H1C0.734784 5.08933 0.48043 5.2063 0.292893 5.41451C0.105357 5.62272 0 5.90512 0 6.19957V13.8158C0 14.1103 0.105357 14.3927 0.292893 14.6009C0.48043 14.8091 0.734784 14.9261 1 14.9261H6L12.41 19.8112C12.5856 19.9373 12.7909 20.003 13 19.9999C13.2652 19.9999 13.5196 19.8829 13.7071 19.6747C13.8946 19.4665 14 19.1841 14 18.8897V1.12576C13.9995 0.924911 13.95 0.72797 13.8566 0.555917C13.7633 0.383864 13.6297 0.243142 13.47 0.148744Z" fill="white"/>
</svg>
